<svg width="247" height="24" viewBox="0 0 247 24" fill="none" xmlns="http://www.w3.org/2000/svg">
<path d="M19.175 20.075L17.025 18.8V13.3H12V21.2C7.45 19.55 4.95 14.75 4.95 10.125C4.95 8.59998 5.25 7.09997 5.8 5.67498C6.925 5.69998 9.925 6.47498 12.675 9.19998L17.275 6.44998C15.35 4.12498 12.85 2.69998 9.875 2.69998C4.2 2.69998 0.375 7.62498 0.375 12.975C0.375 18.775 4.475 23.325 10.275 23.325C13.45 23.325 16.65 22.1 19.175 20.075Z" fill="white"/>
<path d="M35.0229 20.925L33.4979 19.4V11C31.6479 9.94998 29.4229 9.32498 27.2979 9.32498C22.4729 9.32498 20.2979 12.475 20.2979 16C20.2979 18.775 21.6479 21.775 24.1229 23.65L28.7979 20.85L30.4479 23.65L35.0229 20.925ZM28.4729 19.575C25.8979 18.475 23.6729 16.025 23.6729 13.3C23.6729 12.75 23.7729 12.175 23.9979 11.575L28.4729 13.75V19.575Z" fill="white"/>
<path d="M44.5186 23L42.3936 20.225V0.474976L35.7686 4.42498L37.3686 6.02498V20.225L35.2686 23H44.5186Z" fill="white"/>
<path d="M53.7725 23L51.6475 20.225V0.474976L45.0225 4.42498L46.6225 6.02498V20.225L44.5225 23H53.7725Z" fill="white"/>
<path d="M68.1764 16.4C68.1764 11.85 64.4264 9.32498 61.6014 9.32498C57.7014 9.32498 54.6514 12.45 54.6514 16.325C54.6514 20.2 57.7014 23.325 61.6014 23.325C63.4014 23.325 64.9764 22.675 66.3264 21.525C64.2264 21.1 62.3764 20.175 60.9764 18.85L68.1764 16.4ZM63.4014 16.8L58.5514 14.9C58.4014 14.35 58.4264 13.75 58.4264 13.175C58.4264 12.65 58.5014 12.075 58.6264 11.475C59.2014 11.575 63.4014 12.375 63.4014 16.8Z" fill="white"/>
<path d="M83.4699 16.325C83.4699 12.45 80.4199 9.32498 76.4949 9.32498C72.5949 9.32498 69.5449 12.45 69.5449 16.325C69.5449 20.2 72.5949 23.325 76.4949 23.325C80.4199 23.325 83.4699 20.2 83.4699 16.325ZM79.7199 19.5C79.7199 20.025 79.6449 20.6 79.5199 21.15C76.0449 19.9 73.2199 16.825 73.2199 13.175C73.2199 12.625 73.2949 12.05 73.4199 11.5C76.8699 12.75 79.7199 15.85 79.7199 19.5Z" fill="white"/>
<path d="M102.095 23L99.9697 20.225V15.025C99.9697 12.25 97.9697 9.64997 95.0197 9.02498L90.9697 11.45L89.4947 8.99998L84.9197 11.725L86.4447 13.25V20.225L84.3447 23H93.5947L91.4697 20.225V12.55H91.4947C93.4197 12.55 94.9197 13.95 94.9197 15.625V23H102.095Z" fill="white"/>
<path d="M117.286 11.6753L120.951 16.105L121.07 15.9731C121.465 15.5425 121.839 15.1206 122.19 14.7075C122.542 14.2944 122.88 13.8769 123.206 13.4551L125.209 15.5117C124.963 15.8633 124.638 16.2719 124.234 16.7378C123.838 17.2036 123.364 17.7397 122.81 18.3462L126.581 23H122.757L120.727 20.5083C118.864 22.4331 116.926 23.3955 114.913 23.3955C113.111 23.3955 111.582 22.8198 110.325 21.6684C109.095 20.5083 108.479 19.0757 108.479 17.3706C108.479 15.3403 109.455 13.6528 111.406 12.3081L112.738 11.3984C112.755 11.3896 112.786 11.3677 112.83 11.3325C112.874 11.2973 112.936 11.249 113.015 11.1875C111.67 9.75486 110.998 8.34421 110.998 6.95554C110.998 5.58445 111.446 4.46824 112.342 3.60691C113.256 2.74558 114.434 2.31492 115.875 2.31492C117.273 2.31492 118.429 2.7324 119.343 3.56736C120.257 4.40232 120.714 5.45701 120.714 6.73142C120.714 7.61033 120.463 8.40574 119.962 9.11765C119.47 9.82957 118.578 10.6821 117.286 11.6753ZM114.847 13.4023L114.676 13.521C113.419 14.3911 112.562 15.0898 112.105 15.6172C111.657 16.1445 111.433 16.7026 111.433 17.2915C111.433 18.1352 111.771 18.9087 112.448 19.6118C113.151 20.2886 113.924 20.6269 114.768 20.6269C115.955 20.6269 117.321 19.8491 118.868 18.2934L114.847 13.4023ZM115.506 9.51316L115.757 9.32859C116.188 9.00339 116.543 8.72214 116.825 8.48484C117.106 8.23875 117.308 8.0322 117.431 7.86521C117.695 7.54002 117.827 7.14011 117.827 6.6655C117.827 6.12937 117.646 5.69431 117.286 5.36033C116.926 5.02634 116.442 4.85935 115.836 4.85935C115.282 4.85935 114.816 5.03074 114.438 5.37351C114.061 5.69871 113.872 6.11619 113.872 6.62595C113.872 7.22361 114.109 7.81248 114.583 8.39255L115.348 9.31541C115.375 9.35935 115.427 9.42527 115.506 9.51316Z" fill="white"/>
<path d="M150.906 14.9H145.533C145.209 17.411 143.805 18.896 141.591 18.896C138.972 18.896 137.406 16.709 137.406 13.01C137.406 9.31098 138.972 7.12398 141.591 7.12398C143.724 7.12398 145.209 8.63598 145.533 11.147H150.906C150.393 5.88198 146.937 2.74997 141.591 2.74997C135.3 2.74997 131.574 6.55698 131.574 13.01C131.574 19.463 135.3 23.27 141.591 23.27C146.937 23.27 150.393 20.138 150.906 14.9Z" fill="white"/>
<path d="M161.991 9.17598V14.198H161.937C161.937 10.877 160.209 8.90598 157.266 8.90598C154.107 8.90598 152.217 11.579 152.217 16.088C152.217 20.597 154.107 23.27 157.266 23.27C160.209 23.27 161.937 21.299 161.937 17.978H161.991V23H167.391V9.17598H161.991ZM159.966 19.031C158.562 19.031 157.725 17.951 157.725 16.088C157.725 14.225 158.562 13.118 159.966 13.118C161.37 13.118 162.207 14.495 162.207 16.088C162.207 17.681 161.37 19.031 159.966 19.031Z" fill="white"/>
<path d="M179.182 8.90598C176.86 8.90598 175.483 11.336 175.483 15.467H175.429V9.17598H170.029V23H175.429V17.465C175.429 15.008 176.374 13.577 177.967 13.577C178.561 13.577 179.209 13.766 179.722 14.09L181.288 9.39198C180.721 9.09498 179.938 8.90598 179.182 8.90598Z" fill="white"/>
<path d="M191.259 9.17598V14.198H191.205C191.205 10.877 189.477 8.90598 186.534 8.90598C183.375 8.90598 181.485 11.579 181.485 16.088C181.485 20.597 183.375 23.27 186.534 23.27C189.477 23.27 191.205 21.299 191.205 17.978H191.259V23H196.659V9.17598H191.259ZM189.234 19.031C187.83 19.031 186.993 17.951 186.993 16.088C186.993 14.225 187.83 13.118 189.234 13.118C190.638 13.118 191.475 14.495 191.475 16.088C191.475 17.681 190.638 19.031 189.234 19.031Z" fill="white"/>
<path d="M207.802 9.17598L206.02 22.649H205.966L204.157 9.17598H198.406L200.944 23H211.042L213.553 9.17598H207.802Z" fill="white"/>
<path d="M224.323 9.17598V14.198H224.269C224.269 10.877 222.541 8.90598 219.598 8.90598C216.439 8.90598 214.549 11.579 214.549 16.088C214.549 20.597 216.439 23.27 219.598 23.27C222.541 23.27 224.269 21.299 224.269 17.978H224.323V23H229.723V9.17598H224.323ZM222.298 19.031C220.894 19.031 220.057 17.951 220.057 16.088C220.057 14.225 220.894 13.118 222.298 13.118C223.702 13.118 224.539 14.495 224.539 16.088C224.539 17.681 223.702 19.031 222.298 19.031Z" fill="white"/>
<path d="M241.946 8.90598C239.354 8.90598 237.815 10.877 237.815 14.198H237.761V9.17598H232.361V23H237.761V15.629C237.761 14.063 238.436 13.118 239.597 13.118C240.623 13.118 241.217 13.847 241.217 15.089V23H246.617V14.819C246.617 11.093 244.889 8.90598 241.946 8.90598Z" fill="white"/>
</svg>
