<svg width="64" height="72" viewBox="0 0 64 72" fill="none" xmlns="http://www.w3.org/2000/svg">
<path d="M49.7153 69.0095C44.5413 70.9648 39.1424 72 33.7434 72C28.7944 72 24.2952 71.0798 20.1336 69.2396C15.9719 67.3993 12.3726 64.869 9.44815 61.5335C6.41124 58.3131 4.16168 54.5175 2.47451 50.0319C0.787343 45.6613 0 40.9457 0 35.885C0 31.2843 0.787353 26.7987 2.36205 22.4281C3.93674 18.0575 6.07381 14.262 8.99824 10.9265C11.8102 7.59105 15.297 4.94573 19.2338 2.99046C23.1705 1.03519 27.6696 0 32.3937 0C37.4552 0 42.1793 1.15016 46.341 3.45048C50.5026 5.7508 54.3269 8.97123 57.5888 12.9968L41.9543 22.5432C39.5923 20.1278 37.2302 18.1725 34.8682 16.5623C32.5062 14.9521 30.2566 13.6869 28.1195 12.7668C25.9824 11.8467 24.1828 11.1566 22.4956 10.8115C20.8084 10.3515 19.4587 10.2364 18.5589 10.2364C16.6467 15.2971 15.6344 20.4729 15.6344 25.7636C15.6344 29.7892 16.1968 33.8147 17.2091 37.8403C18.2214 41.8658 19.7961 45.5463 21.8207 48.9968C23.8453 52.4473 26.4323 55.5527 29.3568 58.1981C32.3937 60.8435 35.768 62.9137 39.5923 64.4089V37.0351H56.6889V56.2428L64 60.7284C59.7258 64.2939 55.0018 67.0543 49.7153 69.0095Z" fill="white"/>
</svg>
