<svg width="40" height="40" viewBox="0 0 40 40" fill="none" xmlns="http://www.w3.org/2000/svg">
<path d="M20.986 9V17.5858L27.0615 11.5147V5.85784H34.1378V12.9289H28.4768L22.4013 19H30.9934L34.9963 15L40 20L34.9963 25L30.9934 21H22.4013L28.4768 27.0711H34.1378V34.1421H27.0615V28.4852L20.986 22.4142V32.126C22.7125 32.5701 23.9882 34.1362 23.9882 36C23.9882 38.2091 22.196 40 19.9853 40C17.7745 40 15.9823 38.2091 15.9823 36C15.9823 34.1362 17.258 32.5701 18.9845 32.126V22.4142L12.1122 29.2815C13.0188 30.8154 12.8126 32.8242 11.4937 34.1421C9.93049 35.7042 7.39596 35.7042 5.83272 34.1421C4.26947 32.5801 4.26947 30.0474 5.83272 28.4853C7.15162 27.1674 9.1619 26.9614 10.6969 27.8673L17.5693 21H7.87978C7.43541 22.7252 5.86816 24 4.00294 24C1.79218 24 0 22.2091 0 20C0 17.7909 1.79218 16 4.00294 16C5.86816 16 7.43541 17.2748 7.87978 19H17.5693L10.6969 12.1327C9.1619 13.0386 7.15163 12.8326 5.83272 11.5147C4.26948 9.9526 4.26948 7.41994 5.83272 5.85785C7.39597 4.29575 9.93049 4.29575 11.4937 5.85785C12.8126 7.17578 13.0188 9.18458 12.1122 10.7185L18.9845 17.5858V9L14.9816 5L19.9853 0L24.989 5L20.986 9Z" fill="white"/>
</svg>
